<?xml version="1.0" encoding="utf-8"?>
<!-- Generator: Adobe Illustrator 22.0.0, SVG Export Plug-In . SVG Version: 6.00 Build 0)  -->
<svg version="1.1" id="图层_1" xmlns="http://www.w3.org/2000/svg" xmlns:xlink="http://www.w3.org/1999/xlink" x="0px" y="0px"
	 viewBox="0 0 126 126" style="enable-background:new 0 0 126 126;" xml:space="preserve">
<style type="text/css">
	.st0{fill:#E29F9F;}
</style>
<g>
	<path class="st0" d="M62,121.5c-32,0-58-26-58-58s26-58,58-58s58,26,58,58S94,121.5,62,121.5z M62,11.5c-28.7,0-52,23.3-52,52
		s23.3,52,52,52s52-23.3,52-52S90.7,11.5,62,11.5z"/>
	<g>
		<path class="st0" d="M87,91.5c-0.8,0-1.5-0.3-2.1-0.9l-50-50c-1.2-1.2-1.2-3.1,0-4.2c1.2-1.2,3.1-1.2,4.2,0l50,50
			c1.2,1.2,1.2,3.1,0,4.2C88.5,91.2,87.8,91.5,87,91.5z"/>
		<path class="st0" d="M37,91.5c-0.8,0-1.5-0.3-2.1-0.9c-1.2-1.2-1.2-3.1,0-4.2l50-50c1.2-1.2,3.1-1.2,4.2,0c1.2,1.2,1.2,3.1,0,4.2
			l-50,50C38.5,91.2,37.8,91.5,37,91.5z"/>
	</g>
</g>
</svg>
