<?xml version="1.0" standalone="no"?><!DOCTYPE svg PUBLIC "-//W3C//DTD SVG 1.1//EN" "http://www.w3.org/Graphics/SVG/1.1/DTD/svg11.dtd"><svg t="1528077915031" class="icon" style="" viewBox="0 0 1024 1024" version="1.1" xmlns="http://www.w3.org/2000/svg" p-id="3004" xmlns:xlink="http://www.w3.org/1999/xlink" width="18" height="18"><defs><style type="text/css"></style></defs><path d="M287.695238 234.869841h-48.761905V106.463492c0-40.634921 32.507937-73.142857 73.142857-73.142857h406.349207c40.634921 0 73.142857 32.507937 73.142857 73.142857v123.530159h-48.761905V106.463492c0-13.815873-10.565079-24.380952-24.380952-24.380952h-406.349207c-13.815873 0-24.380952 10.565079-24.380952 24.380952v128.406349z" fill="#4FA2FC" p-id="3005"></path><path d="M962.234921 259.250794H68.266667c-13.815873 0-24.380952-10.565079-24.380953-24.380953s10.565079-24.380952 24.380953-24.380952h893.968254c13.815873 0 24.380952 10.565079 24.380952 24.380952s-11.377778 24.380952-24.380952 24.380953z" fill="#4FA2FC" p-id="3006"></path><path d="M734.679365 998.806349h-438.857143c-67.453968 0-121.904762-54.450794-121.904762-121.904762v-642.031746c0-13.815873 10.565079-24.380952 24.380953-24.380952s24.380952 10.565079 24.380952 24.380952v642.031746c0 40.634921 32.507937 73.142857 73.142857 73.142857h438.857143c40.634921 0 73.142857-32.507937 73.142857-73.142857v-642.031746c0-13.815873 10.565079-24.380952 24.380953-24.380952s24.380952 10.565079 24.380952 24.380952v642.031746c0 67.453968-55.263492 121.904762-121.904762 121.904762z" fill="#4FA2FC" p-id="3007"></path><path d="M407.974603 777.752381c-13.815873 0-24.380952-10.565079-24.380952-24.380952v-373.84127c0-13.815873 10.565079-24.380952 24.380952-24.380953s24.380952 10.565079 24.380953 24.380953v373.84127c0 13.815873-10.565079 24.380952-24.380953 24.380952zM621.714286 777.752381c-13.815873 0-24.380952-10.565079-24.380953-24.380952v-373.84127c0-13.815873 10.565079-24.380952 24.380953-24.380953s24.380952 10.565079 24.380952 24.380953v373.84127c0 13.815873-10.565079 24.380952-24.380952 24.380952z" fill="#4FA2FC" p-id="3008"></path></svg>