<?xml version="1.0" standalone="no"?><!DOCTYPE svg PUBLIC "-//W3C//DTD SVG 1.1//EN" "http://www.w3.org/Graphics/SVG/1.1/DTD/svg11.dtd"><svg t="1531987207955" class="icon" style="" viewBox="0 0 1024 1024" version="1.1" xmlns="http://www.w3.org/2000/svg" p-id="2558" xmlns:xlink="http://www.w3.org/1999/xlink" width="32" height="32"><defs><style type="text/css"></style></defs><path d="M895.937 303.608c0 26.52-21.498 48.018-48.018 48.018H175.453c-26.52 0-48.019-21.498-48.019-48.018v-0.155c0-26.52 21.499-48.018 48.019-48.018H847.92c26.52 0 48.018 21.498 48.018 48.018v0.155z m0 208.754c0 26.52-21.498 48.019-48.018 48.019H175.453c-26.52 0-48.019-21.499-48.019-48.019v-0.154c0-26.52 21.499-48.019 48.019-48.019H847.92c26.52 0 48.018 21.499 48.018 48.019v0.154z m0 207.731c0 26.52-21.498 48.02-48.018 48.02H175.453c-26.52 0-48.019-21.5-48.019-48.02v-0.154c0-26.52 21.499-48.019 48.019-48.019H847.92c26.52 0 48.018 21.499 48.018 48.019v0.154z" fill="#515151" p-id="2559"></path></svg>