<?xml version="1.0" encoding="utf-8"?>
<!-- Generator: Adobe Illustrator 22.0.0, SVG Export Plug-In . SVG Version: 6.00 Build 0)  -->
<svg version="1.1" id="图层_1" xmlns="http://www.w3.org/2000/svg" xmlns:xlink="http://www.w3.org/1999/xlink" x="0px" y="0px"
	 viewBox="0 0 40 40" style="enable-background:new 0 0 40 40;" xml:space="preserve">
<style type="text/css">
	.st0{fill:#4FA2FC;}
</style>
<g>
	<g>
		<g>
			<path class="st0" d="M3.7,38.5L3.7,38.5c-0.6,0-1.1-0.5-1.1-1.1V26h2v11.6C4.6,38.1,4.2,38.5,3.7,38.5z"/>
			<polyline class="st0" points="4.6,24 2.6,26 4.6,26 			"/>
		</g>
		<g>
			<path class="st0" d="M19.9,38.5L19.9,38.5c-0.6,0-1.1-0.5-1.1-1.1V23.1h2v14.4C20.8,38.1,20.4,38.5,19.9,38.5z"/>
			<polyline class="st0" points="20.8,21.1 18.8,23.1 20.8,23.1 			"/>
		</g>
		<g>
			<path class="st0" d="M36.1,38.5L36.1,38.5c-0.6,0-1.1-0.5-1.1-1.1V19.5h2v18.1C37,38.1,36.6,38.5,36.1,38.5z"/>
			<polyline class="st0" points="37,17.5 35,19.5 37,19.5 			"/>
		</g>
	</g>
	<g>
		<polygon class="st0" points="27.4,2.5 37.6,2.5 37.6,13.1 		"/>
		<path class="st0" d="M3.2,20.8c-0.3,0-0.6-0.1-0.8-0.4C2,20,2.1,19.3,2.6,19l11.8-8.5l5.7,6.7L32.9,5.6c0.4-0.4,1-0.3,1.4,0.1
			c0.4,0.4,0.3,1-0.1,1.4L19.9,20l-5.8-6.8L3.8,20.6C3.6,20.8,3.4,20.8,3.2,20.8z"/>
	</g>
</g>
</svg>
