<?xml version="1.0" encoding="utf-8"?>
<!-- Generator: Adobe Illustrator 22.0.0, SVG Export Plug-In . SVG Version: 6.00 Build 0)  -->
<svg version="1.1" id="图层_1" xmlns="http://www.w3.org/2000/svg" xmlns:xlink="http://www.w3.org/1999/xlink" x="0px" y="0px"
	 viewBox="0 0 40 40" style="enable-background:new 0 0 40 40;" xml:space="preserve">
<style type="text/css">
	.st0{fill:#2E92ED;}
</style>
<g>
	<g>
		<path class="st0" d="M29.3,11.3h-18c-0.6,0-1-0.4-1-1s0.4-1,1-1h18c0.6,0,1,0.4,1,1S29.9,11.3,29.3,11.3z"/>
		<path class="st0" d="M29.3,18.8h-18c-0.6,0-1-0.4-1-1s0.4-1,1-1h18c0.6,0,1,0.4,1,1S29.9,18.8,29.3,18.8z"/>
		<path class="st0" d="M22.3,26.3h-11c-0.6,0-1-0.4-1-1s0.4-1,1-1h11c0.6,0,1,0.4,1,1S22.9,26.3,22.3,26.3z"/>
	</g>
	<g>
		<path class="st0" d="M25,38.8h-17c-2.8,0-5-2.2-5-5v-28c0-2.8,2.2-5,5-5h24.5c2.8,0,5,2.2,5,5v20.9c0,0.3-0.1,0.5-0.3,0.7
			L25.7,38.5C25.5,38.7,25.3,38.8,25,38.8z M8.1,2.8c-1.7,0-3,1.3-3,3v28c0,1.7,1.3,3,3,3H24L23.9,29c0-0.8,0.3-1.6,0.9-2.1
			c0.6-0.6,1.3-0.9,2.1-0.9l8.6-0.1V5.8c0-1.7-1.3-3-3-3H8.1z M33.6,27.9l-6.7,0c-0.3,0-0.5,0.1-0.7,0.3c-0.2,0.2-0.3,0.4-0.3,0.7
			l0.1,6.4L33.6,27.9z"/>
	</g>
</g>
</svg>
