<?xml version="1.0" encoding="utf-8"?>
<!-- Generator: Adobe Illustrator 22.0.0, SVG Export Plug-In . SVG Version: 6.00 Build 0)  -->
<svg version="1.1" id="图层_1" xmlns="http://www.w3.org/2000/svg" xmlns:xlink="http://www.w3.org/1999/xlink" x="0px" y="0px"
	 viewBox="0 0 40 40" style="enable-background:new 0 0 40 40;" xml:space="preserve">
<style type="text/css">
	.st0{fill:#4FA2FC;}
</style>
<g>
	<g>
		<path class="st0" d="M24.4,11.7c0,0.6-0.4,1.1-1.1,1.5c-0.7,0.4-1.7,0.5-2.9,0.5s-2.2-0.2-2.8-0.6c-0.7-0.4-1-0.9-1-1.4v-0.3h1.7
			v0.2c0,0.4,0.2,0.7,0.7,0.9c0.4,0.2,0.9,0.3,1.5,0.3c0.8,0,1.3-0.1,1.7-0.3c0.4-0.2,0.5-0.5,0.5-0.8c0-0.3-0.2-0.5-0.7-0.8
			c-0.4-0.2-1.1-0.4-1.9-0.6c-1.2-0.2-2-0.5-2.5-0.8c-0.5-0.3-0.8-0.6-0.8-1.1c0-0.6,0.4-1,1.1-1.4c0.7-0.4,1.5-0.5,2.5-0.5
			c1.3,0,2.2,0.2,2.7,0.6C23.7,7.7,24,8.1,24,8.6h-1.7c0-0.3-0.1-0.6-0.4-0.8c-0.3-0.2-0.8-0.4-1.5-0.4c-0.6,0-1,0.1-1.4,0.3
			c-0.3,0.2-0.5,0.4-0.5,0.7c0,0.2,0.1,0.5,0.4,0.6c0.3,0.2,1,0.4,2.1,0.6c1.1,0.2,1.9,0.5,2.5,0.9C24.1,10.9,24.4,11.3,24.4,11.7z"
			/>
	</g>
	<g>
		<g>
			<path class="st0" d="M20.5,23.3c-8.3,0-14.8-3.5-14.8-8h2c0,3.3,5.8,6,12.8,6s12.8-2.7,12.8-6h2C35.3,19.8,28.8,23.3,20.5,23.3z"
				/>
		</g>
		<g>
			<path class="st0" d="M20.5,28.8c-8.3,0-14.8-3.5-14.8-8h2c0,3.3,5.8,6,12.8,6s12.8-2.7,12.8-6h2C35.3,25.3,28.8,28.8,20.5,28.8z"
				/>
		</g>
		<g>
			<path class="st0" d="M20.5,34.3c-8.3,0-14.8-3.5-14.8-8h2c0,3.3,5.8,6,12.8,6s12.8-2.7,12.8-6h2C35.3,30.8,28.8,34.3,20.5,34.3z"
				/>
		</g>
		<g>
			<path class="st0" d="M20.5,39.8c-8.3,0-14.8-3.5-14.8-8h2c0,3.3,5.8,6,12.8,6s12.8-2.7,12.8-6h2C35.3,36.3,28.8,39.8,20.5,39.8z"
				/>
		</g>
		<g>
			<g>
				<path class="st0" d="M35.3,32.7h-2V14C30.7,16.4,26,18,20.5,18S10.3,16.4,7.8,14v18.7h-2V10h2c0,3.3,5.8,6,12.8,6
					s12.8-2.7,12.8-6h2V32.7z"/>
			</g>
			<g>
				<path class="st0" d="M33.3,10c0-3.3-5.8-6.1-12.8-6.1S7.8,6.7,7.8,10l-2,0.1V10c0-4.5,6.5-8,14.8-8c8.3,0,14.8,3.5,14.8,8
					L33.3,10z"/>
			</g>
		</g>
	</g>
	<g>
		<rect x="20.1" y="5.2" class="st0" width="1" height="10"/>
	</g>
</g>
</svg>
