<?xml version="1.0" encoding="utf-8"?>
<!-- Generator: Adobe Illustrator 22.0.0, SVG Export Plug-In . SVG Version: 6.00 Build 0)  -->
<svg version="1.1" id="图层_1" xmlns="http://www.w3.org/2000/svg" xmlns:xlink="http://www.w3.org/1999/xlink" x="0px" y="0px"
	 viewBox="0 0 40 40" style="enable-background:new 0 0 40 40;" xml:space="preserve">
<style type="text/css">
	.st0{fill:#4FA2FC;}
</style>
<g>
	<path class="st0" d="M20.5,39.5C9.8,39.5,1.1,30.7,1.1,20C1.1,9.3,9.8,0.5,20.5,0.5C31.3,0.5,40,9.3,40,20
		C40,30.7,31.3,39.5,20.5,39.5z M20.5,2.5C10.9,2.5,3,10.3,3,20c0,9.7,7.9,17.5,17.5,17.5c9.7,0,17.5-7.9,17.5-17.5
		C38.1,10.3,30.2,2.5,20.5,2.5z"/>
	<g>
		<path class="st0" d="M26.4,20H14.8c-0.5,0-1-0.4-1-1s0.4-1,1-1h11.7c0.5,0,1,0.4,1,1S27,20,26.4,20z"/>
		<path class="st0" d="M26.4,24.9H14.8c-0.5,0-1-0.4-1-1s0.4-1,1-1h11.7c0.5,0,1,0.4,1,1S27,24.9,26.4,24.9z"/>
		<path class="st0" d="M20.6,30.7c-0.5,0-1-0.4-1-1V16.1c0-0.5,0.4-1,1-1c0.5,0,1,0.4,1,1v13.6C21.6,30.3,21.1,30.7,20.6,30.7z"/>
		<path class="st0" d="M20.5,17.1c-0.2,0-0.5-0.1-0.7-0.3L13.9,11c-0.4-0.4-0.4-1,0-1.4s1-0.4,1.4,0l5.8,5.8c0.4,0.4,0.4,1,0,1.4
			C21,17,20.7,17.1,20.5,17.1z"/>
		<path class="st0" d="M20.5,17.1c-0.2,0-0.5-0.1-0.7-0.3c-0.4-0.4-0.4-1,0-1.4l5.8-5.8c0.4-0.4,1-0.4,1.4,0s0.4,1,0,1.4l-5.8,5.8
			C21,17,20.7,17.1,20.5,17.1z"/>
	</g>
</g>
</svg>
