<?xml version="1.0" encoding="utf-8"?>
<!-- Generator: Adobe Illustrator 22.0.0, SVG Export Plug-In . SVG Version: 6.00 Build 0)  -->
<svg version="1.1" id="图层_1" xmlns="http://www.w3.org/2000/svg" xmlns:xlink="http://www.w3.org/1999/xlink" x="0px" y="0px"
	 viewBox="0 0 52 52" style="enable-background:new 0 0 52 52;" xml:space="preserve">
<style type="text/css">
	.st0{fill:#8A8A8A;}
	.st1{fill:#FFFFFF;}
</style>
<g>
	<path class="st0" d="M44.9,4h-37c-2.2,0-4,1.8-4,4v28.5V40v8.5l8.5-8.5h32.5c2.2,0,4-1.8,4-4V8C48.9,5.8,47.1,4,44.9,4z"/>
	<g>
		<g>
			<rect x="17.4" y="18" class="st1" width="18" height="4"/>
			<rect x="17.4" y="26" class="st1" width="18" height="4"/>
			<rect x="18.9" y="23.5" transform="matrix(6.123234e-17 -1 1 6.123234e-17 0.875 51.875)" class="st1" width="15" height="4"/>
		</g>
		<g>
			<rect x="22.4" y="14.5" transform="matrix(-0.7071 0.7071 -0.7071 -0.7071 62.6671 7.0424)" class="st1" width="15" height="4"/>
			<rect x="15.4" y="14.5" transform="matrix(0.7071 0.7071 -0.7071 0.7071 18.3672 -11.3423)" class="st1" width="15" height="4"/>
		</g>
	</g>
</g>
</svg>
