<?xml version="1.0" encoding="utf-8"?>
<!-- Generator: Adobe Illustrator 22.0.0, SVG Export Plug-In . SVG Version: 6.00 Build 0)  -->
<svg version="1.1" id="图层_1" xmlns="http://www.w3.org/2000/svg" xmlns:xlink="http://www.w3.org/1999/xlink" x="0px" y="0px"
	 viewBox="0 0 52 52" style="enable-background:new 0 0 52 52;" xml:space="preserve">
<style type="text/css">
	.st0{fill:#8A8A8A;}
	.st1{fill:#141414;}
	.st2{fill:#5B5B5B;}
	.st3{fill:#79797A;}
</style>
<g>
	<g>
		<polygon class="st0" points="40,32 48,31 26,16 19,16 		"/>
		<polygon class="st1" points="15,24 19,16 40,32 37,41 		"/>
		<polygon class="st2" points="40,32 48,31 49,39 37,41 		"/>
	</g>
	<g>
		<polygon class="st0" points="27,34 35,33 13,18 6,18 		"/>
		<polygon class="st3" points="2,26 6,18 27,34 24,43 		"/>
		<polygon class="st2" points="27,34 35,33 36,41 24,43 		"/>
	</g>
	<g>
		<polygon class="st0" points="35,24 43,23 21,8 14,8 		"/>
		<polygon class="st3" points="10,16 14,8 35,24 32,33 		"/>
		<polygon class="st2" points="35,24 43,23 44,31 32,33 		"/>
	</g>
</g>
</svg>
